<?xml version="1.0" standalone="no"?>
<!DOCTYPE svg PUBLIC "-//W3C//DTD SVG 20010904//EN"
 "http://www.w3.org/TR/2001/REC-SVG-20010904/DTD/svg10.dtd">
<svg version="1.0" xmlns="http://www.w3.org/2000/svg"
 width="512.000000pt" height="512.000000pt" viewBox="0 0 512.000000 512.000000"
 preserveAspectRatio="xMidYMid meet">

<g transform="translate(0.000000,512.000000) scale(0.100000,-0.100000)"
fill="#000000" stroke="none">
<path d="M1822 4473 c-28 -11 -46 -67 -45 -143 1 -41 -3 -83 -8 -92 -5 -10
-27 -20 -53 -23 -54 -8 -76 -30 -83 -82 -7 -52 21 -87 82 -102 45 -11 65 -35
65 -77 0 -23 -38 -54 -67 -54 -32 -1 -55 -16 -71 -47 -29 -54 2 -115 68 -133
87 -23 95 -130 11 -130 -66 0 -109 -77 -77 -138 12 -23 28 -35 59 -43 61 -18
80 -37 73 -73 -4 -17 -10 -34 -14 -38 -4 -3 -207 -10 -451 -13 -247 -3 -453
-11 -462 -16 -50 -27 -52 -239 -2 -280 10 -9 55 -16 132 -19 111 -5 116 -6
128 -30 10 -20 12 -227 10 -993 -2 -913 -3 -969 -20 -982 -10 -7 -65 -16 -128
-20 -86 -5 -115 -11 -129 -25 -38 -38 -34 -238 6 -267 15 -11 320 -13 1706
-13 1632 0 1689 1 1707 19 23 23 37 161 22 219 -17 61 -30 67 -143 67 -93 0
-101 2 -119 24 -18 22 -19 53 -19 996 0 872 2 975 16 989 12 12 38 16 115 16
129 0 143 11 153 122 9 89 -5 152 -37 172 -17 11 -114 15 -462 20 -393 6 -441
8 -452 23 -33 44 -4 84 69 97 53 9 78 34 85 83 7 55 -24 88 -91 98 -56 9 -76
26 -76 65 0 38 21 57 73 65 47 7 68 20 85 52 33 61 -5 122 -81 130 -53 6 -77
29 -77 73 0 38 20 57 66 63 83 10 123 68 92 134 -11 23 -23 30 -72 40 -32 6
-63 16 -69 22 -7 7 -13 46 -15 89 -1 42 -5 87 -8 100 -13 64 -108 86 -155 36
-21 -22 -24 -37 -27 -107 -4 -122 -5 -124 -54 -132 -59 -10 -88 -38 -88 -87 0
-22 4 -48 10 -58 10 -19 59 -40 95 -40 26 0 35 -17 35 -69 0 -46 -14 -61 -57
-61 -48 0 -83 -37 -83 -87 0 -52 22 -80 73 -94 57 -15 67 -25 67 -69 0 -44
-11 -55 -65 -63 -51 -8 -75 -37 -75 -92 0 -51 21 -73 88 -95 42 -13 47 -18 50
-48 6 -61 3 -62 -239 -62 l-219 0 -12 26 c-18 40 7 77 57 85 102 17 118 164
20 184 -14 3 -36 7 -49 10 -29 6 -40 34 -31 75 5 25 14 31 60 45 63 18 85 43
85 97 0 43 -25 74 -65 83 -14 3 -36 7 -50 10 -29 6 -42 55 -26 98 8 21 17 27
41 27 62 0 99 35 100 93 0 49 -31 81 -88 91 -34 5 -45 12 -53 32 -5 15 -7 35
-3 46 3 11 3 47 -1 80 -9 75 -36 108 -89 108 -75 0 -96 -32 -96 -145 0 -95 -9
-113 -61 -121 -55 -9 -79 -31 -86 -80 -7 -53 24 -92 82 -101 48 -7 65 -25 65
-69 0 -41 -22 -64 -61 -64 -45 0 -89 -48 -89 -95 0 -45 31 -76 92 -90 36 -9
44 -16 52 -43 14 -51 -5 -82 -50 -82 -73 0 -120 -88 -79 -148 9 -13 39 -28 70
-38 61 -17 77 -44 56 -90 l-11 -24 -237 2 -238 3 -3 40 c-4 43 14 65 54 65 12
0 36 12 53 26 26 21 31 33 31 68 0 54 -21 84 -68 92 -61 11 -72 21 -72 63 0
45 11 57 63 66 106 20 102 185 -6 185 -44 0 -57 15 -57 67 0 46 17 63 65 63
42 0 75 41 75 93 0 51 -26 81 -79 91 -55 10 -61 21 -61 103 0 81 -17 135 -48
152 -21 11 -77 14 -100 4z m1044 -2163 c167 0 255 -3 252 -10 -4 -14 -802
-1238 -805 -1236 -2 2 40 194 92 429 52 235 95 431 95 437 0 6 -78 10 -221 10
-121 0 -219 4 -217 9 2 4 125 211 273 458 l270 450 3 -273 2 -274 256 0z m106
424 c256 -133 395 -324 444 -610 47 -278 -74 -581 -306 -765 -70 -56 -175
-111 -265 -139 -86 -26 -247 -39 -270 -20 -18 15 -20 73 -2 88 7 6 51 16 99
22 302 37 518 217 607 504 97 315 -61 674 -360 816 -113 54 -114 54 -117 82
-5 42 14 68 49 68 17 0 71 -21 121 -46z m-616 1 c28 -43 8 -66 -113 -131 -238
-130 -353 -320 -353 -585 0 -246 106 -447 305 -578 60 -40 70 -51 73 -79 5
-50 -13 -65 -70 -60 -39 4 -61 15 -121 61 -370 283 -413 855 -90 1197 74 79
143 128 240 170 84 36 108 37 129 5z"/>
</g>
</svg>
