<?xml version="1.0" standalone="no"?>
<!DOCTYPE svg PUBLIC "-//W3C//DTD SVG 20010904//EN"
 "http://www.w3.org/TR/2001/REC-SVG-20010904/DTD/svg10.dtd">
<svg version="1.0" xmlns="http://www.w3.org/2000/svg"
 width="1300.000000pt" height="1300.000000pt" viewBox="0 0 1300.000000 1300.000000"
 preserveAspectRatio="xMidYMid meet">

<g transform="translate(0.000000,1300.000000) scale(0.100000,-0.100000)"
fill="#000000" stroke="none">
<path d="M6460 10313 c0 -9 -32 -413 -85 -1087 -19 -246 -35 -482 -35 -524 0
-87 20 -295 29 -311 5 -7 24 -5 60 6 44 12 63 13 105 4 84 -19 80 -20 88 29
20 121 20 377 -1 625 -11 138 -34 423 -51 635 -16 212 -32 405 -35 430 -2 25
-7 80 -11 123 -6 77 -6 77 -35 77 -16 0 -29 -3 -29 -7z m21 -200 c13 -16 12
-17 -3 -4 -10 7 -18 15 -18 17 0 8 8 3 21 -13z"/>
<path d="M6384 8338 c-169 -113 -94 -368 109 -368 56 0 122 34 161 83 29 36
31 45 31 116 0 72 -2 79 -34 119 -44 56 -96 82 -164 82 -45 0 -63 -6 -103 -32z"/>
<path d="M6717 8110 c-12 -43 -29 -73 -60 -105 l-43 -45 20 -18 c44 -40 154
-120 226 -164 105 -65 610 -309 623 -301 5 3 7 2 4 -4 -3 -5 42 -33 101 -61
59 -28 250 -121 426 -207 175 -86 320 -155 321 -153 1 2 7 13 14 25 13 26 31
11 -239 200 -247 173 -430 302 -635 446 -252 178 -253 179 -350 244 -90 60
-219 130 -329 178 -32 14 -59 25 -60 25 0 0 -9 -27 -19 -60z"/>
<path d="M6174 8132 c-136 -60 -261 -137 -528 -324 -155 -108 -294 -206 -311
-218 -16 -12 -167 -118 -335 -236 -168 -118 -317 -224 -333 -235 -24 -17 -26
-23 -16 -42 7 -12 13 -23 14 -25 1 -1 123 57 271 129 148 72 346 169 439 214
606 294 714 350 818 420 62 41 129 89 151 108 l38 33 -36 27 c-40 31 -81 95
-91 145 -4 17 -10 32 -13 31 -4 0 -34 -13 -68 -27z"/>
<path d="M6436 7864 c-9 -8 -18 -25 -20 -37 -5 -22 -21 -561 -31 -1032 -3
-137 -8 -290 -11 -338 -4 -71 -2 -87 8 -81 10 6 10 5 2 -7 -8 -9 -14 -111 -18
-294 -4 -154 -13 -516 -21 -805 -8 -289 -26 -965 -40 -1503 -28 -1090 -30
-1024 40 -1067 28 -17 49 -20 151 -20 185 0 216 29 214 198 -3 175 -39 1583
-45 1742 -3 85 -14 511 -25 945 -11 435 -22 880 -25 990 -3 110 -10 371 -15
580 -6 209 -12 423 -15 475 -2 52 -5 125 -5 163 0 53 -4 71 -20 87 -25 25
-101 28 -124 4z"/>
</g>
</svg>
